<svg width="184" height="48" fill="none" xmlns="http://www.w3.org/2000/svg"><path d="M37.405 21h-1.364V5.596h1.364v6.94h10.388v-6.94h1.364V21h-1.364v-7.305H37.405V21zM56 18.959c-1.433-1.454-2.149-3.34-2.149-5.661 0-2.306.716-4.193 2.149-5.661 1.425-1.461 3.283-2.192 5.575-2.192 2.27 0 4.125.73 5.564 2.192 1.44 1.46 2.16 3.348 2.16 5.66 0 2.328-.72 4.215-2.16 5.662-1.44 1.46-3.294 2.191-5.564 2.191-2.292 0-4.15-.73-5.575-2.191zm1.05-10.441c-1.167 1.231-1.75 2.825-1.75 4.78 0 1.962.583 3.56 1.75 4.79 1.175 1.24 2.682 1.86 4.523 1.86 1.84 0 3.348-.62 4.522-1.86 1.16-1.23 1.74-2.828 1.74-4.79 0-1.955-.58-3.549-1.74-4.78-1.174-1.24-2.682-1.859-4.522-1.859-1.84 0-3.348.62-4.523 1.859zM81.93 21h-7.928V5.596h7.552c1.139 0 2.07.354 2.793 1.063.716.716 1.074 1.633 1.074 2.75 0 .802-.193 1.511-.58 2.127a3.505 3.505 0 01-1.568 1.364c.873.23 1.572.695 2.095 1.397.522.716.784 1.572.784 2.567 0 1.225-.39 2.217-1.171 2.976-.788.773-1.805 1.16-3.05 1.16zm-.419-7.412h-6.144v6.273h6.144c.967 0 1.744-.293 2.331-.88.587-.588.881-1.343.881-2.267 0-.924-.294-1.676-.88-2.256-.588-.58-1.365-.87-2.332-.87zm-6.144-6.864v5.693h5.79c.866 0 1.564-.265 2.094-.795.523-.523.784-1.203.784-2.041 0-.845-.26-1.532-.784-2.062-.53-.53-1.228-.795-2.094-.795h-5.79zM90.65 21H89.2l7.015-15.404H97.6L104.594 21h-1.45l-1.891-4.2h-8.69L90.65 21zm10.077-5.371l-3.803-8.422-3.835 8.422h7.638zm12.481-1.16L109.341 21h-1.526l3.921-6.574c-1.153-.143-2.077-.616-2.771-1.418-.702-.81-1.053-1.805-1.053-2.986 0-1.304.422-2.367 1.267-3.191.831-.824 1.92-1.235 3.266-1.235h7.369V21h-1.364v-6.531h-5.242zm-.613-7.702c-.981 0-1.779.3-2.395.902-.616.602-.924 1.386-.924 2.353 0 .96.308 1.747.924 2.363.609.608 1.407.913 2.395.913h5.855V6.767h-5.855zM47.879 44.003l.816.838c-1.475 1.54-3.351 2.31-5.629 2.31-2.291 0-4.15-.731-5.575-2.192-1.432-1.454-2.148-3.34-2.148-5.661 0-2.313.72-4.2 2.159-5.661 1.432-1.461 3.287-2.192 5.564-2.192 2.27 0 4.147.763 5.63 2.288l-.817.86c-.544-.602-1.235-1.074-2.073-1.418a6.979 6.979 0 00-2.675-.516c-1.862 0-3.384.62-4.566 1.859-1.181 1.231-1.772 2.818-1.772 4.758 0 1.97.59 3.57 1.772 4.802 1.182 1.246 2.704 1.87 4.566 1.87.945 0 1.837-.173 2.675-.516.838-.344 1.529-.82 2.073-1.43zm4.091-11.236v-1.171h13.417v1.17h-6.026V47h-1.364V32.767H51.97zm17.96 12.192c-1.432-1.454-2.148-3.34-2.148-5.661 0-2.306.716-4.193 2.148-5.661 1.425-1.461 3.284-2.192 5.575-2.192 2.27 0 4.125.73 5.565 2.192 1.44 1.46 2.159 3.348 2.159 5.66 0 2.328-.72 4.215-2.16 5.662-1.439 1.46-3.294 2.191-5.564 2.191-2.291 0-4.15-.73-5.575-2.191zm1.053-10.441c-1.168 1.231-1.751 2.825-1.751 4.78 0 1.962.584 3.56 1.75 4.79 1.175 1.24 2.683 1.86 4.523 1.86 1.84 0 3.348-.62 4.523-1.86 1.16-1.23 1.74-2.828 1.74-4.79 0-1.955-.58-3.549-1.74-4.78-1.175-1.24-2.682-1.859-4.523-1.859-1.84 0-3.348.62-4.522 1.859zm18.25-2.922h10.634V47h-1.364V32.767h-7.97c0 6.173-.316 10.165-.946 11.977-.33.967-.698 1.611-1.106 1.934-.416.315-.942.472-1.58.472-.487 0-.88-.085-1.181-.257l.236-1.032c.215.1.451.15.71.15.357 0 .647-.085.87-.257.221-.158.45-.523.687-1.096.229-.558.415-1.357.558-2.395.301-2.392.451-5.948.451-10.667zm17.497 13.363c-1.432-1.454-2.148-3.34-2.148-5.661 0-2.306.716-4.193 2.148-5.661 1.425-1.461 3.284-2.192 5.575-2.192 2.271 0 4.125.73 5.565 2.192 1.439 1.46 2.159 3.348 2.159 5.66 0 2.328-.72 4.215-2.159 5.662-1.44 1.46-3.294 2.191-5.565 2.191-2.291 0-4.15-.73-5.575-2.191zm1.053-10.441c-1.167 1.231-1.751 2.825-1.751 4.78 0 1.962.584 3.56 1.751 4.79 1.174 1.24 2.682 1.86 4.522 1.86 1.841 0 3.348-.62 4.523-1.86 1.16-1.23 1.74-2.828 1.74-4.79 0-1.955-.58-3.549-1.74-4.78-1.175-1.24-2.682-1.859-4.523-1.859-1.84 0-3.348.62-4.522 1.859zM132.661 47h-7.928V31.596h7.552c1.138 0 2.069.354 2.793 1.063.716.716 1.074 1.633 1.074 2.75 0 .802-.194 1.511-.58 2.127a3.509 3.509 0 01-1.569 1.364c.874.23 1.572.695 2.095 1.397.523.716.784 1.572.784 2.567 0 1.225-.39 2.217-1.171 2.976-.787.773-1.804 1.16-3.05 1.16zm-.419-7.412h-6.145v6.273h6.145c.966 0 1.743-.293 2.331-.88.587-.588.881-1.343.881-2.267 0-.924-.294-1.676-.881-2.256-.588-.58-1.365-.87-2.331-.87zm-6.145-6.864v5.693h5.79c.867 0 1.565-.265 2.095-.795.523-.523.784-1.203.784-2.04 0-.846-.261-1.534-.784-2.063-.53-.53-1.228-.795-2.095-.795h-5.79zM141.382 47h-1.45l7.014-15.404h1.386L155.325 47h-1.45l-1.891-4.2h-8.69l-1.912 4.2zm10.076-5.371l-3.803-8.422-3.835 8.422h7.638zm12.481-1.16L160.072 47h-1.525l3.921-6.574c-1.153-.143-2.077-.616-2.772-1.418-.702-.81-1.053-1.805-1.053-2.986 0-1.304.423-2.367 1.268-3.19.831-.825 1.919-1.236 3.266-1.236h7.369V47h-1.365v-6.531h-5.242zm-.612-7.702c-.981 0-1.78.3-2.396.902-.615.602-.923 1.386-.923 2.353 0 .96.308 1.747.923 2.363.609.608 1.408.913 2.396.913h5.854v-6.531h-5.854zM28.154 23.856c0 .266-.037.529-.077.792a7.294 7.294 0 01-.626 2.01 8.008 8.008 0 01-3.104 3.423c-.85.52-1.78.877-2.788 1.058-.53.096-1.067.152-1.607.19-.441.03-.885.045-1.33.053-.694.011-1.39.008-2.085.011-.059 0-.114-.005-.17-.008-.083-.11-.11-.232-.148-.35a.98.98 0 01-.046-.315c.012-.574.016-1.15.028-1.725a6.713 6.713 0 01.244-1.6c.478-1.749 1.474-3.203 3.004-4.337 1.505-1.114 3.236-1.69 5.17-1.759 1.12-.04 2.24.006 3.36.02.036 0 .076.003.114.014.021.009.049.034.055.054a.474.474 0 01.015.133l-.009 2.336zm-14.896 7.178c-.037.119-.065.24-.148.35-.056.004-.111.01-.17.01-.694-.003-1.39 0-2.085-.012a26.111 26.111 0 01-1.33-.054 14.591 14.591 0 01-1.607-.19 8.013 8.013 0 01-2.788-1.057 8.008 8.008 0 01-3.103-3.422 7.295 7.295 0 01-.626-2.011 5.25 5.25 0 01-.078-.792l-.009-2.336c0-.046.003-.09.016-.133a.104.104 0 01.055-.054.392.392 0 01.114-.014c1.12-.014 2.24-.06 3.36-.02 1.934.068 3.664.645 5.17 1.76 1.53 1.133 2.526 2.587 3.004 4.335.142.526.231 1.058.244 1.6.012.575.015 1.152.027 1.726a.983.983 0 01-.046.314zm16.118-10.128c-.189-.506-.67-.775-1.16-.778-.028 0-.059 0-.087-.003-.453-.008-.907-.02-1.36-.028a502.06 502.06 0 01-.632-.017c-.324 0-.642.003-.963 0-.413-.003-.83.028-1.243.062-3.38.289-6.243 2.136-7.773 4.67l-.14.232c-.02.03-.058.048-.067.03-.01-.013-.025-.027-.025-.042-.021-.387-.04-.777-.058-1.168-.028-.59-.053-1.182-.099-1.776-.015-.2-.018-.404-.022-.608a1.16 1.16 0 01.059-.368c.068-.22.2-.398.398-.54a1.77 1.77 0 01.429-.22c.114-.043.234-.08.351-.116a9.132 9.132 0 001.53-.628c1.447-.767 2.413-1.884 2.912-3.34A7.2 7.2 0 0021.729 15c.11-.758.126-1.515.07-2.28-.027-.336-.052-.67-.092-1.003-.056-.441-.13-.877-.228-1.313a12.024 12.024 0 00-.858-2.528 11.072 11.072 0 00-2.329-3.241 7.035 7.035 0 00-1.046-.837 5.08 5.08 0 00-1.616-.69A4.125 4.125 0 0014.74 3c-.3.003-.599.04-.892.107a5.083 5.083 0 00-1.616.69c-.38.247-.725.53-1.046.838a11.072 11.072 0 00-2.329 3.24A12.055 12.055 0 008 10.405c-.099.435-.173.87-.229 1.312-.04.334-.064.667-.092 1.004a10.44 10.44 0 00.07 2.28c.066.43.161.854.303 1.266.5 1.457 1.465 2.574 2.912 3.34.488.258 1 .462 1.53.629.117.036.237.073.352.116.154.056.299.127.428.22.198.142.33.32.398.54.037.122.062.244.059.368a9.804 9.804 0 01-.022.608c-.046.594-.07 1.185-.098 1.776-.019.39-.037.78-.059 1.168 0 .015-.015.029-.025.043-.009.017-.046 0-.067-.031l-.14-.232c-1.53-2.534-4.392-4.381-7.773-4.67a14.06 14.06 0 00-1.243-.062c-.32.003-.638 0-.962 0l-.633.017c-.453.009-.906.02-1.36.028-.028.003-.059.003-.086.003-.49.003-.972.272-1.16.778a1.51 1.51 0 00-.102.546c.003.744-.003 1.488.006 2.231.013.648.099 1.287.269 1.918.527 1.983 1.631 3.637 3.343 4.941a9.308 9.308 0 003.523 1.663c.657.159 1.323.238 1.996.297.558.045 1.12.068 1.678.07.29.004.58.01.87.018.046 0 .092.011.139.02.006.002.015.01.015.016.003.009 0 .023-.006.026a.503.503 0 01-.093.062c-.138.06-.277.119-.42.178a4.87 4.87 0 00-1.218.707c-.493.41-.826.908-.99 1.5a3.361 3.361 0 00-.114 1.08c.016.22.034.441.074.659.053.288.09.577.133.868a813.762 813.762 0 01.293 2.079l.135.973.149 1.001c.064.455.13.91.194 1.369l.222 1.499c.034.218.068.435.105.656a.934.934 0 00.151.37c.099.148.24.25.423.303.231.065.46.054.684-.008.293-.085.472-.266.543-.538.038-.138.047-.28.038-.421l-.09-1.431c-.025-.424-.053-.849-.08-1.273l-.111-1.643c-.003-.045-.01-.088-.013-.133l-.09-1.324a19.33 19.33 0 01-.04-.582c-.008-.224-.02-.444-.02-.665 0-.206.064-.402.181-.58.225-.342.651-.444 1.006-.365a.754.754 0 01.509.365c.092.156.148.326.16.504.019.203.034.407.04.61.022.611.043 1.22.062 1.83.018.532.037 1.064.052 1.593.028.823.053 1.646.084 2.469.009.274.024.549.037.823a.97.97 0 00.07.337.751.751 0 00.516.432c.108.029.216.043.324.04.108.003.215-.011.324-.04a.751.751 0 00.515-.433.972.972 0 00.07-.336c.013-.274.029-.549.038-.823.03-.823.055-1.646.083-2.47.015-.528.034-1.06.053-1.591.018-.611.04-1.22.061-1.83.006-.204.022-.408.04-.611a1.14 1.14 0 01.16-.504.754.754 0 01.51-.365c.354-.079.78.023 1.005.365.117.178.182.374.182.58 0 .22-.012.441-.021.665-.01.192-.025.387-.04.582a183 183 0 01-.09 1.324c-.003.045-.01.088-.012.133l-.111 1.643c-.028.424-.056.849-.08 1.273-.031.475-.06.953-.09 1.43-.01.142 0 .284.037.422.071.272.25.453.543.538.225.062.453.073.685.008a.748.748 0 00.422-.302.934.934 0 00.151-.37c.038-.221.072-.44.105-.657l.223-1.5.194-1.368.148-1.001.136-.973c.049-.368.101-.738.154-1.106l.139-.973c.043-.291.08-.58.132-.868.04-.218.059-.439.074-.66a3.364 3.364 0 00-.114-1.08 2.937 2.937 0 00-.99-1.499 4.869 4.869 0 00-1.219-.707l-.419-.178a.498.498 0 01-.092-.062c-.007-.003-.01-.017-.007-.026 0-.005.01-.014.016-.017.046-.008.092-.02.139-.02.29-.008.58-.013.87-.016.558-.003 1.12-.026 1.677-.071.673-.06 1.34-.139 1.996-.297a9.309 9.309 0 003.523-1.663c1.712-1.304 2.816-2.959 3.344-4.941.17-.63.256-1.27.268-1.918.01-.743.003-1.487.006-2.231 0-.187-.034-.37-.101-.546z" fill="#000"/></svg>