<svg width="184" height="48" viewBox="0 0 184 48" fill="none" xmlns="http://www.w3.org/2000/svg">
<path d="M37.4053 21H36.041V5.5957H37.4053V12.5352H47.793V5.5957H49.1572V21H47.793V13.6953H37.4053V21ZM55.9987 18.959C54.5664 17.5052 53.8503 15.6182 53.8503 13.2979C53.8503 10.9919 54.5664 9.10482 55.9987 7.63672C57.4238 6.17578 59.2822 5.44531 61.5739 5.44531C63.8441 5.44531 65.6989 6.17578 67.1384 7.63672C68.5778 9.09766 69.2975 10.9847 69.2975 13.2979C69.2975 15.6253 68.5778 17.5124 67.1384 18.959C65.6989 20.4199 63.8441 21.1504 61.5739 21.1504C59.2822 21.1504 57.4238 20.4199 55.9987 18.959ZM57.0514 8.51758C55.8841 9.74935 55.3005 11.3428 55.3005 13.2979C55.3005 15.2601 55.8841 16.8571 57.0514 18.0889C58.2259 19.3278 59.7334 19.9473 61.5739 19.9473C63.4144 19.9473 64.9219 19.3278 66.0964 18.0889C67.2565 16.8571 67.8366 15.2601 67.8366 13.2979C67.8366 11.3428 67.2565 9.74935 66.0964 8.51758C64.9219 7.27865 63.4144 6.65918 61.5739 6.65918C59.7334 6.65918 58.2259 7.27865 57.0514 8.51758ZM81.9291 21H74.0013V5.5957H81.5531C82.6918 5.5957 83.6227 5.9502 84.3461 6.65918C85.0622 7.37533 85.4203 8.29199 85.4203 9.40918C85.4203 10.2113 85.2269 10.9202 84.8402 11.5361C84.4606 12.1449 83.9379 12.5996 83.2718 12.9004C84.1455 13.1296 84.8438 13.5951 85.3666 14.2969C85.8893 15.013 86.1507 15.8688 86.1507 16.8643C86.1507 18.0889 85.7604 19.0807 84.9798 19.8398C84.1921 20.6133 83.1752 21 81.9291 21ZM81.5101 13.5879H75.3656V19.8613H81.5101C82.4769 19.8613 83.2539 19.5677 83.8412 18.9805C84.4284 18.3932 84.722 17.6377 84.722 16.7139C84.722 15.79 84.4284 15.0381 83.8412 14.458C83.2539 13.8779 82.4769 13.5879 81.5101 13.5879ZM75.3656 6.72363V12.417H81.1556C82.0222 12.417 82.7204 12.152 83.2504 11.6221C83.7731 11.0993 84.0345 10.4189 84.0345 9.58105C84.0345 8.736 83.7731 8.0485 83.2504 7.51855C82.7204 6.98861 82.0222 6.72363 81.1556 6.72363H75.3656ZM90.6504 21H89.2002L96.2149 5.5957H97.6006L104.594 21H103.144L101.253 16.7998H92.5625L90.6504 21ZM100.727 15.6289L96.9239 7.20703L93.0889 15.6289H100.727ZM113.208 14.4688L109.341 21H107.815L111.736 14.4258C110.583 14.2826 109.659 13.8099 108.965 13.0078C108.263 12.1986 107.912 11.2031 107.912 10.0215C107.912 8.7181 108.334 7.65462 109.179 6.83105C110.01 6.00749 111.099 5.5957 112.445 5.5957H119.814V21H118.45V14.4688H113.208ZM112.595 6.7666C111.614 6.7666 110.816 7.06738 110.2 7.66895C109.584 8.27051 109.276 9.05469 109.276 10.0215C109.276 10.9811 109.584 11.7689 110.2 12.3848C110.809 12.9935 111.607 13.2979 112.595 13.2979H118.45V6.7666H112.595ZM47.8789 44.0029L48.6953 44.8408C47.2201 46.3805 45.3438 47.1504 43.0664 47.1504C40.7747 47.1504 38.9163 46.4199 37.4912 44.959C36.0589 43.5052 35.3428 41.6182 35.3428 39.2979C35.3428 36.9847 36.0625 35.0977 37.502 33.6367C38.9342 32.1758 40.7891 31.4453 43.0664 31.4453C45.3366 31.4453 47.2129 32.208 48.6953 33.7334L47.8789 34.5928C47.3346 33.9912 46.6436 33.5186 45.8057 33.1748C44.9678 32.8311 44.0762 32.6592 43.1309 32.6592C41.2689 32.6592 39.7471 33.2786 38.5654 34.5176C37.3838 35.7493 36.793 37.3356 36.793 39.2764C36.793 41.2458 37.3838 42.8464 38.5654 44.0781C39.7471 45.3242 41.2689 45.9473 43.1309 45.9473C44.0762 45.9473 44.9678 45.7754 45.8057 45.4316C46.6436 45.0879 47.3346 44.6117 47.8789 44.0029ZM51.9704 32.7666V31.5957H65.3874V32.7666H59.361V47H57.9968V32.7666H51.9704ZM69.93 44.959C68.4977 43.5052 67.7816 41.6182 67.7816 39.2979C67.7816 36.9919 68.4977 35.1048 69.93 33.6367C71.3552 32.1758 73.2136 31.4453 75.5052 31.4453C77.7754 31.4453 79.6302 32.1758 81.0697 33.6367C82.5091 35.0977 83.2289 36.9847 83.2289 39.2979C83.2289 41.6253 82.5091 43.5124 81.0697 44.959C79.6302 46.4199 77.7754 47.1504 75.5052 47.1504C73.2136 47.1504 71.3552 46.4199 69.93 44.959ZM70.9828 34.5176C69.8155 35.7493 69.2318 37.3428 69.2318 39.2979C69.2318 41.2601 69.8155 42.8571 70.9828 44.0889C72.1573 45.3278 73.6647 45.9473 75.5052 45.9473C77.3457 45.9473 78.8532 45.3278 80.0277 44.0889C81.1879 42.8571 81.7679 41.2601 81.7679 39.2979C81.7679 37.3428 81.1879 35.7493 80.0277 34.5176C78.8532 33.2786 77.3457 32.6592 75.5052 32.6592C73.6647 32.6592 72.1573 33.2786 70.9828 34.5176ZM89.2325 31.5957H99.8672V47H98.503V32.7666H90.5323C90.5323 38.9398 90.2172 42.9323 89.587 44.7441C89.2575 45.7109 88.8887 46.3555 88.4805 46.6777C88.0651 46.9928 87.5388 47.1504 86.9014 47.1504C86.4144 47.1504 86.0205 47.0645 85.7198 46.8926L85.9561 45.8613C86.1709 45.9616 86.4073 46.0117 86.6651 46.0117C87.0232 46.0117 87.3132 45.9258 87.5352 45.7539C87.7572 45.5964 87.9864 45.2311 88.2227 44.6582C88.4519 44.0996 88.6381 43.3011 88.7813 42.2627C89.0821 39.8708 89.2325 36.3151 89.2325 31.5957ZM106.73 44.959C105.298 43.5052 104.582 41.6182 104.582 39.2979C104.582 36.9919 105.298 35.1048 106.73 33.6367C108.155 32.1758 110.014 31.4453 112.305 31.4453C114.576 31.4453 116.43 32.1758 117.87 33.6367C119.309 35.0977 120.029 36.9847 120.029 39.2979C120.029 41.6253 119.309 43.5124 117.87 44.959C116.43 46.4199 114.576 47.1504 112.305 47.1504C110.014 47.1504 108.155 46.4199 106.73 44.959ZM107.783 34.5176C106.616 35.7493 106.032 37.3428 106.032 39.2979C106.032 41.2601 106.616 42.8571 107.783 44.0889C108.957 45.3278 110.465 45.9473 112.305 45.9473C114.146 45.9473 115.653 45.3278 116.828 44.0889C117.988 42.8571 118.568 41.2601 118.568 39.2979C118.568 37.3428 117.988 35.7493 116.828 34.5176C115.653 33.2786 114.146 32.6592 112.305 32.6592C110.465 32.6592 108.957 33.2786 107.783 34.5176ZM132.661 47H124.733V31.5957H132.285C133.423 31.5957 134.354 31.9502 135.078 32.6592C135.794 33.3753 136.152 34.292 136.152 35.4092C136.152 36.2113 135.958 36.9202 135.572 37.5361C135.192 38.1449 134.669 38.5996 134.003 38.9004C134.877 39.1296 135.575 39.5951 136.098 40.2969C136.621 41.013 136.882 41.8688 136.882 42.8643C136.882 44.0889 136.492 45.0807 135.711 45.8398C134.924 46.6133 133.907 47 132.661 47ZM132.242 39.5879H126.097V45.8613H132.242C133.208 45.8613 133.985 45.5677 134.573 44.9805C135.16 44.3932 135.454 43.6377 135.454 42.7139C135.454 41.79 135.16 41.0381 134.573 40.458C133.985 39.8779 133.208 39.5879 132.242 39.5879ZM126.097 32.7236V38.417H131.887C132.754 38.417 133.452 38.152 133.982 37.6221C134.505 37.0993 134.766 36.4189 134.766 35.5811C134.766 34.736 134.505 34.0485 133.982 33.5186C133.452 32.9886 132.754 32.7236 131.887 32.7236H126.097ZM141.382 47H139.932L146.946 31.5957H148.332L155.325 47H153.875L151.984 42.7998H143.294L141.382 47ZM151.458 41.6289L147.655 33.207L143.82 41.6289H151.458ZM163.939 40.4688L160.072 47H158.547L162.468 40.4258C161.315 40.2826 160.391 39.8099 159.696 39.0078C158.994 38.1986 158.643 37.2031 158.643 36.0215C158.643 34.7181 159.066 33.6546 159.911 32.8311C160.742 32.0075 161.83 31.5957 163.177 31.5957H170.546V47H169.181V40.4688H163.939ZM163.327 32.7666C162.346 32.7666 161.547 33.0674 160.931 33.6689C160.316 34.2705 160.008 35.0547 160.008 36.0215C160.008 36.9811 160.316 37.7689 160.931 38.3848C161.54 38.9935 162.339 39.2979 163.327 39.2979H169.181V32.7666H163.327Z" fill="black"/>
<path d="M28.1541 23.8559C28.1541 24.1218 28.117 24.3848 28.0768 24.6478C27.9659 25.3436 27.7592 26.0139 27.4507 26.6588C26.7721 28.0701 25.7511 29.2211 24.3475 30.081C23.4961 30.6015 22.5677 30.9578 21.559 31.1388C21.0283 31.2349 20.4917 31.2914 19.9519 31.3283C19.5107 31.3593 19.0666 31.3736 18.6224 31.3821C17.9282 31.3933 17.2311 31.3905 16.537 31.3933C16.4784 31.3933 16.4229 31.3877 16.3673 31.3848C16.2841 31.2745 16.2563 31.153 16.2194 31.0341C16.1886 30.9324 16.1699 30.8276 16.1731 30.7201C16.1854 30.146 16.1886 29.5691 16.2008 28.9949C16.2131 28.4519 16.3026 27.9202 16.4445 27.3941C16.9227 25.6462 17.919 24.1925 19.449 23.0583C20.9543 21.944 22.685 21.3671 24.6191 21.2991C25.7387 21.2595 26.8584 21.3048 27.9782 21.3189C28.0152 21.3189 28.0554 21.3217 28.0925 21.3331C28.1141 21.3415 28.1417 21.3671 28.1478 21.3868C28.1602 21.4292 28.1633 21.4745 28.1633 21.5197C28.1602 22.2975 28.157 23.0752 28.1541 23.8559ZM13.258 31.0341C13.221 31.153 13.1933 31.2745 13.1099 31.3848C13.0544 31.3877 12.9989 31.3933 12.9404 31.3933C12.2463 31.3905 11.5492 31.3933 10.855 31.3821C10.4109 31.3736 9.96669 31.3593 9.52558 31.3283C8.9857 31.2914 8.44905 31.2349 7.91841 31.1388C6.90966 30.9578 5.98122 30.6015 5.12989 30.081C3.72631 29.2211 2.70527 28.0701 2.02671 26.6588C1.71815 26.0139 1.51152 25.3436 1.40053 24.6478C1.36037 24.3848 1.32344 24.1218 1.32344 23.8559C1.32036 23.0752 1.31717 22.2975 1.31409 21.5197C1.31409 21.4745 1.31717 21.4292 1.32956 21.3868C1.33569 21.3671 1.36345 21.3415 1.38506 21.3331C1.42203 21.3217 1.46215 21.3189 1.49923 21.3189C2.61897 21.3048 3.7387 21.2595 4.85844 21.2991C6.79255 21.3671 8.5231 21.944 10.0283 23.0583C11.5584 24.1925 12.5547 25.6462 13.0328 27.3941C13.1748 27.9202 13.2642 28.4519 13.2765 28.9949C13.2889 29.5691 13.292 30.146 13.3043 30.7201C13.3073 30.8276 13.2889 30.9324 13.258 31.0341ZM29.3756 20.906C29.1874 20.3997 28.7062 20.131 28.2157 20.1282C28.188 20.1282 28.157 20.1282 28.1294 20.1254C27.676 20.1168 27.2225 20.1056 26.769 20.097C26.5561 20.0914 26.3434 20.0858 26.1367 20.0801C25.8127 20.0801 25.4949 20.083 25.1741 20.0801C24.7609 20.0773 24.3444 20.1084 23.9312 20.1424C20.5502 20.4308 17.6877 22.2778 16.1577 24.8119C16.1113 24.8882 16.0651 24.9675 16.0189 25.0438C15.9973 25.0749 15.9603 25.0918 15.9508 25.0749C15.9416 25.0608 15.9263 25.0466 15.9263 25.0325C15.9047 24.6449 15.8863 24.2546 15.8676 23.8643C15.8399 23.2732 15.8153 22.6821 15.769 22.0882C15.7536 21.8874 15.7505 21.6837 15.7474 21.4801C15.7442 21.3557 15.769 21.2341 15.806 21.1124C15.8739 20.8918 16.0065 20.7137 16.2039 20.5722C16.3336 20.4789 16.4784 20.4082 16.6328 20.3517C16.7468 20.3092 16.8672 20.2724 16.9844 20.2357C17.5149 20.0688 18.027 19.8651 18.5143 19.6078C19.9611 18.8413 20.9267 17.7241 21.4264 16.2675C21.5682 15.8546 21.6638 15.4303 21.7287 15.0005C21.8396 14.2425 21.8551 13.4845 21.7996 12.7208C21.7719 12.3842 21.7472 12.0506 21.707 11.7168C21.6515 11.2756 21.5774 10.84 21.4788 10.4045C21.2843 9.53617 21.0068 8.69052 20.6212 7.87595C20.0536 6.67109 19.2763 5.59071 18.2922 4.63477C17.9714 4.32643 17.6259 4.04365 17.2465 3.79756C16.7499 3.48078 16.2163 3.24044 15.6302 3.10748C15.3372 3.03962 15.0379 3.00279 14.7387 3C14.4395 3.00279 14.1403 3.03962 13.8472 3.10748C13.2612 3.24044 12.7275 3.48078 12.2308 3.79756C11.8515 4.04365 11.506 4.32643 11.1852 4.63477C10.2011 5.59071 9.42376 6.67109 8.85619 7.87595C8.47065 8.69052 8.19293 9.53617 7.99869 10.4045C7.9 10.84 7.82595 11.2756 7.77035 11.7168C7.73019 12.0506 7.70565 12.3842 7.67777 12.7208C7.62228 13.4845 7.63772 14.2425 7.74874 15.0005C7.81355 15.4303 7.90921 15.8546 8.05114 16.2675C8.55083 17.7241 9.51637 18.8413 10.963 19.6078C11.4505 19.8651 11.9624 20.0688 12.4931 20.2357C12.6102 20.2724 12.7305 20.3092 12.8447 20.3517C12.9989 20.4082 13.1439 20.4789 13.2735 20.5722C13.4709 20.7137 13.6036 20.8918 13.6714 21.1124C13.7083 21.2341 13.7332 21.3557 13.7299 21.4801C13.7269 21.6837 13.7238 21.8874 13.7083 22.0882C13.6622 22.6821 13.6375 23.2732 13.6096 23.8643C13.5912 24.2546 13.5727 24.6449 13.5511 25.0325C13.5511 25.0466 13.5356 25.0608 13.5264 25.0749C13.5172 25.0918 13.4801 25.0749 13.4585 25.0438C13.4122 24.9675 13.366 24.8882 13.3197 24.8119C11.7897 22.2778 8.92716 20.4308 5.54635 20.1424C5.13297 20.1084 4.7165 20.0773 4.30323 20.0801C3.98228 20.083 3.66465 20.0801 3.3408 20.0801C3.13416 20.0858 2.92126 20.0914 2.70835 20.097C2.25495 20.1056 1.80152 20.1168 1.34798 20.1254C1.32036 20.1282 1.2894 20.1282 1.26167 20.1282C0.771162 20.131 0.290002 20.3997 0.101778 20.906C0.034035 21.0814 0 21.2652 0 21.4518C0.00308088 22.1957 -0.00304393 22.9396 0.00616247 23.6834C0.0185585 24.331 0.10486 24.9701 0.274526 25.6009C0.801973 27.5835 1.90638 29.2382 3.61837 30.5421C4.65485 31.334 5.83008 31.8911 7.14112 32.205C7.79808 32.3635 8.46441 32.4426 9.13684 32.502C9.69524 32.5472 10.2566 32.5699 10.815 32.5727C11.105 32.5756 11.3948 32.5812 11.6848 32.5897C11.7311 32.5897 11.7774 32.601 11.8237 32.6095C11.8299 32.6124 11.8391 32.6208 11.8391 32.6264C11.8421 32.6349 11.8391 32.6491 11.8329 32.6519C11.8052 32.6745 11.7742 32.6973 11.7403 32.7141C11.6016 32.7736 11.4627 32.8329 11.3209 32.8923C10.8797 33.0762 10.4664 33.3024 10.1024 33.5994C9.6088 34.0095 9.2757 34.5073 9.11231 35.0984C9.01665 35.452 8.97649 35.814 8.99813 36.1789C9.01357 36.3994 9.03199 36.62 9.07215 36.8378C9.12456 37.1263 9.16153 37.4148 9.20473 37.706C9.25102 38.0284 9.29734 38.3538 9.34363 38.679C9.39604 39.0468 9.44845 39.4172 9.49782 39.7849C9.5441 40.1101 9.5872 40.4355 9.63348 40.7579C9.68285 41.0915 9.73218 41.4253 9.78154 41.7591C9.84639 42.2143 9.9112 42.6697 9.97589 43.1279C10.0499 43.6257 10.124 44.1264 10.198 44.6269C10.2319 44.8447 10.2659 45.0625 10.3029 45.2831C10.3245 45.416 10.3769 45.5377 10.454 45.6536C10.5527 45.8007 10.6946 45.9024 10.8766 45.9562C11.108 46.0213 11.3363 46.0099 11.5615 45.9478C11.8545 45.8629 12.0334 45.6819 12.1044 45.4104C12.1415 45.2718 12.1507 45.1303 12.1415 44.9889C12.1105 44.5109 12.0828 44.0329 12.0519 43.5578C12.0273 43.1336 11.9995 42.7093 11.9717 42.2851C11.9347 41.7363 11.8977 41.1906 11.8607 40.6418C11.8576 40.5967 11.8515 40.5541 11.8484 40.5089C11.8174 40.0678 11.7866 39.6265 11.7589 39.1852C11.7434 38.99 11.7281 38.7949 11.7187 38.6027C11.7095 38.3792 11.6971 38.1587 11.6971 37.9381C11.6971 37.7316 11.7619 37.5364 11.8792 37.3582C12.1044 37.016 12.5301 36.9141 12.8848 36.9934C13.1131 37.0414 13.2796 37.1687 13.3938 37.3582C13.4864 37.5137 13.5419 37.6835 13.5541 37.8616C13.5727 38.0654 13.5881 38.2689 13.5943 38.4726C13.6159 39.0835 13.6375 39.6916 13.6559 40.3025C13.6744 40.8342 13.693 41.3659 13.7083 41.8949C13.7362 42.7179 13.7609 43.5409 13.7917 44.3639C13.801 44.6382 13.8164 44.9126 13.8287 45.1869C13.8349 45.3029 13.8533 45.416 13.8996 45.5235C13.9983 45.7412 14.165 45.8884 14.4148 45.9562C14.5228 45.9846 14.6308 45.9987 14.7387 45.9959C14.8467 45.9987 14.9545 45.9846 15.0626 45.9562C15.3124 45.8884 15.479 45.7412 15.5777 45.5235C15.624 45.416 15.6424 45.3029 15.6487 45.1869C15.661 44.9126 15.6765 44.6382 15.6857 44.3639C15.7165 43.5409 15.7413 42.7179 15.769 41.8949C15.7845 41.3659 15.8029 40.8342 15.8215 40.3025C15.8399 39.6916 15.8615 39.0835 15.8831 38.4726C15.8892 38.2689 15.9047 38.0654 15.9232 37.8616C15.9355 37.6835 15.9912 37.5137 16.0837 37.3582C16.1978 37.1687 16.3644 37.0414 16.5926 36.9934C16.9473 36.9141 17.3731 37.016 17.5982 37.3582C17.7154 37.5364 17.7801 37.7316 17.7801 37.9381C17.7801 38.1587 17.7678 38.3792 17.7586 38.6027C17.7494 38.7949 17.734 38.99 17.7185 39.1852C17.6908 39.6265 17.6599 40.0678 17.629 40.5089C17.6259 40.5541 17.6198 40.5967 17.6167 40.6418C17.5798 41.1906 17.5427 41.7363 17.5057 42.2851C17.478 42.7093 17.4501 43.1336 17.4255 43.5578C17.3946 44.0329 17.3669 44.5109 17.336 44.9889C17.3267 45.1303 17.3361 45.2718 17.3731 45.4104C17.444 45.6819 17.623 45.8629 17.9159 45.9478C18.1411 46.0099 18.3695 46.0213 18.6008 45.9562C18.7827 45.9024 18.9245 45.8007 19.0234 45.6536C19.1005 45.5377 19.1528 45.416 19.1744 45.2831C19.2115 45.0625 19.2455 44.8447 19.2794 44.6269C19.3534 44.1264 19.4274 43.6257 19.5015 43.1279C19.5663 42.6697 19.631 42.2143 19.6958 41.7591C19.745 41.4253 19.7945 41.0915 19.8439 40.7579C19.8902 40.4355 19.9333 40.1101 19.9796 39.7849C20.0289 39.4172 20.0813 39.0468 20.1338 38.679C20.1802 38.3538 20.2264 38.0284 20.2726 37.706C20.3158 37.4148 20.3528 37.1263 20.4052 36.8378C20.4454 36.62 20.4638 36.3994 20.4794 36.1789C20.5009 35.814 20.4609 35.452 20.3652 35.0984C20.2018 34.5073 19.8686 34.0095 19.375 33.5994C19.011 33.3024 18.5977 33.0762 18.1564 32.8923C18.0146 32.8329 17.8758 32.7736 17.737 32.7141C17.7031 32.6973 17.6722 32.6745 17.6446 32.6519C17.6383 32.6491 17.6353 32.6349 17.6383 32.6264C17.6383 32.6208 17.6475 32.6124 17.6538 32.6095C17.7 32.601 17.7462 32.5897 17.7925 32.5897C18.0825 32.5812 18.3724 32.5756 18.6625 32.5727C19.2208 32.5699 19.7821 32.5472 20.3405 32.502C21.013 32.4426 21.6791 32.3635 22.3363 32.205C23.6473 31.8911 24.8225 31.334 25.859 30.5421C27.571 29.2382 28.6754 27.5835 29.2028 25.6009C29.3724 24.9701 29.4588 24.331 29.4712 23.6834C29.4804 22.9396 29.4743 22.1957 29.4774 21.4518C29.4774 21.2652 29.4435 21.0814 29.3756 20.906Z" fill="black"/>
</svg>
